<?xml version="1.0" encoding="iso-8859-1"?>
<!-- Generator: Adobe Illustrator 19.0.0, SVG Export Plug-In . SVG Version: 6.00 Build 0)  -->
<svg version="1.1" id="Layer_1" xmlns="http://www.w3.org/2000/svg" xmlns:xlink="http://www.w3.org/1999/xlink" x="0px" y="0px"
	 viewBox="0 0 512.263 512.263" style="enable-background:new 0 0 512.263 512.263;" xml:space="preserve">
<g>
	<g>
		<path d="M505.305,159.771l-178.347-34.133l178.347-34.133c4.267-0.853,7.68-5.12,6.827-10.24c-0.853-4.267-5.12-7.68-10.24-6.827
			l-211.627,40.96v-6.827c0-5.12-3.413-8.533-8.533-8.533h-51.2c-5.12,0-8.533,3.413-8.533,8.533v6.827L10.372,74.437
			c-5.12-0.853-9.387,2.56-10.24,6.827c-0.853,5.12,2.56,9.387,6.827,10.24l178.347,34.133L6.958,159.771
			c-4.267,0.853-7.68,5.12-6.827,10.24c0.853,4.267,4.267,6.827,8.533,6.827c0.853,0,0.853,0,1.707,0l211.627-40.96v6.827
			c0,5.12,3.413,8.533,8.533,8.533h17.067v17.067h-17.067c0-5.12-3.413-8.533-8.533-8.533h-42.667c-5.12,0-8.533,3.413-8.533,8.533
			v34.133h-34.133c-5.12,0-8.533,3.413-8.533,8.533s3.413,8.533,8.533,8.533h42.667h8.533
			c-11.093,9.387-17.067,23.893-17.067,39.253v20.48H8.665c-5.12,0-8.533,3.413-8.533,8.533c0,5.12,3.413,8.533,8.533,8.533h34.133
			v8.533h-1.707c-8.533,0-15.36,6.827-15.36,15.36v20.48c0,8.533,6.827,15.36,15.36,15.36h20.48c8.533,0,15.36-6.827,15.36-15.36
			v-20.48c0-8.533-6.827-15.36-15.36-15.36h-1.707v-8.533h68.267v8.533h-1.707c-8.533,0-15.36,6.827-15.36,15.36v20.48
			c0,8.533,6.827,15.36,15.36,15.36h20.48c8.533,0,15.36-6.827,15.36-15.36v-20.48c0-8.533-6.827-15.36-15.36-15.36h-1.707v-8.533
			h25.6v11.093c0,17.067,7.68,31.573,20.48,41.813l-33.28,33.28c-4.267-5.12-10.24-9.387-17.92-9.387h-6.827
			c-11.947,0-22.187,10.24-22.187,22.187v20.48c0,11.947,10.24,22.187,22.187,22.187h6.827c11.947,0,22.187-10.24,22.187-22.187
			v-13.653l45.227-45.227c1.707,0.853,3.413,0.853,4.267,1.707l9.387,1.707c8.533,1.707,17.92,2.56,26.453,3.413v9.387h-1.707
			c-8.533,0-15.36,6.827-15.36,15.36v20.48c0,8.533,6.827,15.36,15.36,15.36h20.48c8.533,0,15.36-6.827,15.36-15.36v-20.48
			c0-8.533-6.827-15.36-15.36-15.36h-1.707v-8.533c9.387-0.853,17.92-1.707,26.453-3.413l9.387-1.707
			c1.707,0,3.413-0.853,4.267-1.707l45.227,45.227v12.8c0,11.947,10.24,22.187,22.187,22.187h6.827
			c11.947,0,22.187-10.24,22.187-22.187v-20.48c0-11.947-10.24-22.187-22.187-22.187h-6.827c-7.68,0-13.653,3.413-17.92,9.387
			l-33.28-33.28c12.8-9.387,20.48-24.747,20.48-41.813v-11.093h25.6v8.533h-1.707c-8.533,0-15.36,6.827-15.36,15.36v20.48
			c0,8.533,6.827,15.36,15.36,15.36h20.48c8.533,0,15.36-6.827,15.36-15.36v-20.48c0-8.533-6.827-15.36-15.36-15.36h-1.707v-8.533
			h68.267v8.533h-1.707c-8.533,0-15.36,6.827-15.36,15.36v20.48c0,8.533,6.827,15.36,15.36,15.36h20.48
			c8.533,0,15.36-6.827,15.36-15.36v-20.48c0-8.533-6.827-15.36-15.36-15.36h-1.707v-8.533h34.133c5.12,0,8.533-3.413,8.533-8.533
			c0-4.267-3.413-8.533-8.533-8.533H341.465v-20.48c0-15.36-6.827-29.013-17.067-39.253h8.533h42.667
			c5.12,0,8.533-3.413,8.533-8.533s-3.413-8.533-8.533-8.533h-34.133v-34.133c0-5.12-3.413-8.533-8.533-8.533h-42.667
			c-5.12,0-8.533,3.413-8.533,8.533h-17.067v-17.067h17.067c5.12,0,8.533-3.413,8.533-8.533v-6.827l211.627,40.96
			c0.853,0,0.853,0,1.707,0c4.267,0,7.68-2.56,8.533-6.827C512.985,165.744,509.572,160.624,505.305,159.771z M187.865,202.437
			v-25.6h25.6v25.6H187.865z M298.798,176.837h25.6v25.6h-25.6V176.837z M309.892,245.957c3.413,1.707,5.12,4.267,5.12,7.68v34.133
			h0.853c0,2.56-1.707,5.12-3.413,6.827s-3.413,1.707-5.12,1.707c-0.853,0-2.56,0-3.413-0.853c-24.747-10.24-70.827-10.24-96.427,0
			c-2.56,0.853-5.973,0.853-7.68-0.853c-1.707-0.853-3.413-3.413-3.413-6.827v-34.133c0-3.413,1.707-6.827,5.12-7.68
			C231.385,234.011,280.878,234.011,309.892,245.957z M281.732,185.371v17.067h-51.2v-17.067H281.732z"/>
	</g>
</g>
<g>
	<g>
		<path d="M213.465,259.611v16.213c12.8-3.413,27.307-5.12,42.667-5.12s29.867,1.707,42.667,5.12v-16.213
			C274.905,252.784,237.358,252.784,213.465,259.611z"/>
	</g>
</g>
<g>
</g>
<g>
</g>
<g>
</g>
<g>
</g>
<g>
</g>
<g>
</g>
<g>
</g>
<g>
</g>
<g>
</g>
<g>
</g>
<g>
</g>
<g>
</g>
<g>
</g>
<g>
</g>
<g>
</g>
</svg>
